<?xml version="1.0" encoding="utf-8"?>
<!-- Generator: Adobe Illustrator 16.0.3, SVG Export Plug-In . SVG Version: 6.00 Build 0)  -->
<!DOCTYPE svg PUBLIC "-//W3C//DTD SVG 1.0//EN" "http://www.w3.org/TR/2001/REC-SVG-20010904/DTD/svg10.dtd">
<svg version="1.0" id="Layer_1" xmlns="http://www.w3.org/2000/svg" xmlns:xlink="http://www.w3.org/1999/xlink" x="0px" y="0px"
	 width="32px" height="32px" viewBox="0 0 32 32" enable-background="new 0 0 32 32" xml:space="preserve">
<g>
	<g>
		<g>
			<path fill-rule="evenodd" clip-rule="evenodd" fill="#00BCED" d="M29.253,17.123L12.131,0l-2.077,2.078l16.688,16.73
				c0.578,0.579,0.578,1.519,0,2.098l-9.023,9.015l2.08,2.08l9.381-9.313C30.753,21.112,30.827,18.697,29.253,17.123z"/>
		</g>
	</g>
	<path fill-rule="evenodd" clip-rule="evenodd" fill="#00BCED" d="M18.729,26.661l-2.112,2.112L2.81,14.938
		c-1.608-1.608-1.563-4.075-0.148-5.49l6.241-6.222l2.1,2.101l-5.754,5.754c-0.579,0.58-0.579,1.519,0,2.099l4.836,4.835
		l6.766-6.766l2.099,2.098l-6.767,6.767L18.729,26.661z"/>
</g>
</svg>
